<svg width="2531" height="1443" xmlns="http://www.w3.org/2000/svg" xmlns:xlink="http://www.w3.org/1999/xlink" xml:space="preserve" overflow="hidden"><defs><clipPath id="clip0"><rect x="1862" y="298" width="2531" height="1443"/></clipPath></defs><g clip-path="url(#clip0)" transform="translate(-1862 -298)"><rect x="1863" y="299" width="2528" height="1440" fill="#FFFFFF"/><g><path d="M2503.58 469.5 2503.58 1536.5M2788.59 469.5 2788.59 1536.5M3072.6 469.5 3072.6 1536.5M3356.61 469.5 3356.61 1536.5M3640.62 469.5 3640.62 1536.5M3925.5 469.5 3925.5 1536.5" stroke="#D9D9D9" stroke-width="3.4375" stroke-linejoin="round" stroke-miterlimit="10" fill="none"/></g><g><rect x="2220" y="1295" width="455" height="126" fill="#E97132"/></g><g><rect x="2220" y="940" width="412" height="126" fill="#C00000"/></g><g><rect x="2220" y="584" width="1421" height="126" fill="#00B0F0"/></g><g><path d="M2674.59 1358.54 2651.5 1358.54M2674.59 1358.54 2697.5 1358.54M2651.5 1348.5 2651.5 1368.5M2697.5 1348.5 2697.5 1368.5" stroke="#595959" stroke-width="3.4375" stroke-linejoin="round" stroke-miterlimit="10" fill="none"/></g><g><path d="M2631.59 1002.53 2611.5 1002.53M2631.59 1002.53 2651.5 1002.53M2611.5 992.5 2611.5 1012.5M2651.5 992.5 2651.5 1012.5" stroke="#595959" stroke-width="3.4375" stroke-linejoin="round" stroke-miterlimit="10" fill="none"/></g><g><path d="M0 0 0.000360892 1067" stroke="#D9D9D9" stroke-width="3.4375" stroke-linejoin="round" stroke-miterlimit="10" fill="none" fill-rule="evenodd" transform="matrix(1 0 0 -1 2219.5 1536.5)"/></g><g><text fill="#FFFFFF" font-family="Aptos Narrow,Aptos Narrow_MSFontService,sans-serif" font-weight="400" font-stretch="semi-condensed" font-size="41" transform="matrix(1 0 0 1 2410.47 1372)">0.32</text></g><g><text fill="#FFFFFF" font-family="Aptos Narrow,Aptos Narrow_MSFontService,sans-serif" font-weight="400" font-stretch="semi-condensed" font-size="41" transform="matrix(1 0 0 1 2389.15 1016)">0.29</text></g><g><text fill="#FFFFFF" font-family="Aptos Narrow,Aptos Narrow_MSFontService,sans-serif" font-weight="400" font-stretch="semi-condensed" font-size="41" transform="matrix(1 0 0 1 2919.87 661)">1</text></g><g><text fill="#595959" font-family="Aptos Narrow,Aptos Narrow_MSFontService,sans-serif" font-weight="400" font-stretch="semi-condensed" font-size="41" transform="matrix(1 0 0 1 2209.37 1601)">0</text></g><g><text fill="#595959" font-family="Aptos Narrow,Aptos Narrow_MSFontService,sans-serif" font-weight="400" font-stretch="semi-condensed" font-size="41" transform="matrix(1 0 0 1 2477.76 1601)">0.2</text></g><g><text fill="#595959" font-family="Aptos Narrow,Aptos Narrow_MSFontService,sans-serif" font-weight="400" font-stretch="semi-condensed" font-size="41" transform="matrix(1 0 0 1 2761.96 1601)">0.4</text></g><g><text fill="#595959" font-family="Aptos Narrow,Aptos Narrow_MSFontService,sans-serif" font-weight="400" font-stretch="semi-condensed" font-size="41" transform="matrix(1 0 0 1 3046.16 1601)">0.6</text></g><g><text fill="#595959" font-family="Aptos Narrow,Aptos Narrow_MSFontService,sans-serif" font-weight="400" font-stretch="semi-condensed" font-size="41" transform="matrix(1 0 0 1 3330.36 1601)">0.8</text></g><g><text fill="#595959" font-family="Aptos Narrow,Aptos Narrow_MSFontService,sans-serif" font-weight="400" font-stretch="semi-condensed" font-size="41" transform="matrix(1 0 0 1 3630.37 1601)">1</text></g><g><text fill="#595959" font-family="Aptos Narrow,Aptos Narrow_MSFontService,sans-serif" font-weight="400" font-stretch="semi-condensed" font-size="41" transform="matrix(1 0 0 1 3898.76 1601)">1.2</text></g><g><text fill="#595959" font-family="Aptos Narrow,Aptos Narrow_MSFontService,sans-serif" font-weight="400" font-stretch="semi-condensed" font-size="41" transform="matrix(1 0 0 1 1928.92 1370)">ArraFire oneAPI</text></g><g><text fill="#595959" font-family="Aptos Narrow,Aptos Narrow_MSFontService,sans-serif" font-weight="400" font-stretch="semi-condensed" font-size="41" transform="matrix(1 0 0 1 1892.92 1014)">ArrayFire OpenCL</text></g><g><text fill="#595959" font-family="Aptos Narrow,Aptos Narrow_MSFontService,sans-serif" font-weight="400" font-stretch="semi-condensed" font-size="41" transform="matrix(1 0 0 1 2040.94 658)">oneDNN</text></g><g><text fill="#595959" font-family="Aptos Narrow,Aptos Narrow_MSFontService,sans-serif" font-weight="400" font-stretch="semi-condensed" font-size="46" transform="matrix(1 0 0 1 2991.24 1669)">Speedup</text></g><g><text fill="#595959" font-family="Aptos Narrow,Aptos Narrow_MSFontService,sans-serif" font-weight="400" font-stretch="semi-condensed" font-size="64" transform="matrix(1 0 0 1 2749.84 393)">Approximate Overall Speedup</text></g><g><rect x="4023" y="990" width="23" height="23.0001" fill="#E97132"/></g><g><text fill="#595959" font-family="Aptos Narrow,Aptos Narrow_MSFontService,sans-serif" font-weight="400" font-stretch="semi-condensed" font-size="41" transform="matrix(1 0 0 1 4055.61 1013)">ArraFire oneAPI</text></g><g><rect x="4023" y="1068" width="23" height="22" fill="#C00000"/></g><g><text fill="#595959" font-family="Aptos Narrow,Aptos Narrow_MSFontService,sans-serif" font-weight="400" font-stretch="semi-condensed" font-size="41" transform="matrix(1 0 0 1 4055.61 1091)">ArrayFire OpenCL</text></g><g><rect x="4023" y="1145" width="23" height="23" fill="#00B0F0"/></g><g><text fill="#595959" font-family="Aptos Narrow,Aptos Narrow_MSFontService,sans-serif" font-weight="400" font-stretch="semi-condensed" font-size="41" transform="matrix(1 0 0 1 4055.61 1168)">oneDNN</text></g><rect x="1863.5" y="299.5" width="2528" height="1440" stroke="#D9D9D9" stroke-width="3.4375" stroke-linejoin="round" stroke-miterlimit="10" fill="none"/></g></svg>