<svg width="2713" height="1837" xmlns="http://www.w3.org/2000/svg" xmlns:xlink="http://www.w3.org/1999/xlink" xml:space="preserve" overflow="hidden"><defs><clipPath id="clip0"><rect x="674" y="1839" width="2713" height="1837"/></clipPath></defs><g clip-path="url(#clip0)" transform="translate(-674 -1839)"><rect x="675" y="1840" width="2710" height="1834" fill="#FFFFFF"/><g><path d="M913.5 3266.61 3334.5 3266.61M913.5 3070.6 3334.5 3070.6M913.5 2873.59 3334.5 2873.59M913.5 2677.59 3334.5 2677.59M913.5 2481.58 3334.5 2481.58M913.5 2284.58 3334.5 2284.58M913.5 2088.5 3334.5 2088.5" stroke="#D9D9D9" stroke-width="3.4375" stroke-linejoin="round" stroke-miterlimit="10" fill="none"/></g><g><path d="M1029.03 2851.09 1135.04 2851.09 1135.04 3463 1029.03 3463ZM1634.05 3287.11 1740.06 3287.11 1740.06 3463 1634.05 3463ZM2239.07 3258.11 2345.08 3258.11 2345.08 3463 2239.07 3463ZM2845.09 3153.1 2950.1 3153.1 2950.1 3463 2845.09 3463Z" fill="#E97132"/></g><g><path d="M1163.04 3390.11 1269.04 3390.11 1269.04 3463 1163.04 3463ZM1768.06 3215.11 1874.06 3215.11 1874.06 3463 1768.06 3463ZM2374.08 2358.08 2479.08 2358.08 2479.08 3463 2374.08 3463ZM2979.1 3232.11 3084.1 3232.11 3084.1 3463 2979.1 3463Z" fill="#C00000"/></g><g><path d="M1297.04 2677.09 1403.05 2677.09 1403.05 3463 1297.04 3463ZM1903.06 2677.09 2008.07 2677.09 2008.07 3463 1903.06 3463ZM2508.08 2677.09 2613.09 2677.09 2613.09 3463 2508.08 3463ZM3113.1 2677.09 3219.11 2677.09 3219.11 3463 3113.1 3463Z" fill="#00B0F0"/></g><g><path d="M1081.54 2850.59 1081.54 2897.5M1081.54 2850.59 1081.54 2803.5M1071.5 2897.5 1092.5 2897.5M1071.5 2803.5 1092.5 2803.5" stroke="#595959" stroke-width="3.4375" stroke-linejoin="round" stroke-miterlimit="10" fill="none"/></g><g><path d="M1687.56 3287.61 1687.56 3311.5M1687.56 3287.61 1687.56 3262.5M1676.5 3311.5 1697.5 3311.5M1676.5 3262.5 1697.5 3262.5" stroke="#595959" stroke-width="3.4375" stroke-linejoin="round" stroke-miterlimit="10" fill="none"/></g><g><path d="M2292.58 3258.61 2292.58 3263.5M2292.58 3258.61 2292.58 3252.5M2282.5 3263.5 2302.5 3263.5M2282.5 3252.5 2302.5 3252.5" stroke="#595959" stroke-width="3.4375" stroke-linejoin="round" stroke-miterlimit="10" fill="none"/></g><g><path d="M2897.6 3152.6 2897.6 3189.5M2897.6 3152.6 2897.6 3116.5M2887.5 3189.5 2907.5 3189.5M2887.5 3116.5 2907.5 3116.5" stroke="#595959" stroke-width="3.4375" stroke-linejoin="round" stroke-miterlimit="10" fill="none"/></g><g><path d="M1215.54 3389.61 1215.54 3394.5M1215.54 3389.61 1215.54 3384.5M1205.5 3394.5 1226.5 3394.5M1205.5 3384.5 1226.5 3384.5" stroke="#595959" stroke-width="3.4375" stroke-linejoin="round" stroke-miterlimit="10" fill="none"/></g><g><path d="M1821.56 3214.61 1821.56 3245.5M1821.56 3214.61 1821.56 3183.5M1810.5 3245.5 1831.5 3245.5M1810.5 3183.5 1831.5 3183.5" stroke="#595959" stroke-width="3.4375" stroke-linejoin="round" stroke-miterlimit="10" fill="none"/></g><g><path d="M2426.58 2358.58 2426.58 2390.5M2426.58 2358.58 2426.58 2326.5M2416.5 2390.5 2436.5 2390.5M2416.5 2326.5 2436.5 2326.5" stroke="#595959" stroke-width="3.4375" stroke-linejoin="round" stroke-miterlimit="10" fill="none"/></g><g><path d="M3031.6 3232.61 3031.6 3255.5M3031.6 3232.61 3031.6 3208.5M3021.5 3255.5 3042.5 3255.5M3021.5 3208.5 3042.5 3208.5" stroke="#595959" stroke-width="3.4375" stroke-linejoin="round" stroke-miterlimit="10" fill="none"/></g><g><path d="M913.5 3462.5 3334.5 3462.5" stroke="#D9D9D9" stroke-width="3.4375" stroke-linejoin="round" stroke-miterlimit="10" fill="none" fill-rule="evenodd"/></g><g><text fill="#595959" font-family="Aptos Narrow,Aptos Narrow_MSFontService,sans-serif" font-weight="400" font-stretch="semi-condensed" font-size="41" transform="matrix(1 0 0 1 854.402 3474)">0</text></g><g><text fill="#595959" font-family="Aptos Narrow,Aptos Narrow_MSFontService,sans-serif" font-weight="400" font-stretch="semi-condensed" font-size="41" transform="matrix(1 0 0 1 801.877 3278)">0.25</text></g><g><text fill="#595959" font-family="Aptos Narrow,Aptos Narrow_MSFontService,sans-serif" font-weight="400" font-stretch="semi-condensed" font-size="41" transform="matrix(1 0 0 1 822.777 3082)">0.5</text></g><g><text fill="#595959" font-family="Aptos Narrow,Aptos Narrow_MSFontService,sans-serif" font-weight="400" font-stretch="semi-condensed" font-size="41" transform="matrix(1 0 0 1 801.877 2885)">0.75</text></g><g><text fill="#595959" font-family="Aptos Narrow,Aptos Narrow_MSFontService,sans-serif" font-weight="400" font-stretch="semi-condensed" font-size="41" transform="matrix(1 0 0 1 854.402 2689)">1</text></g><g><text fill="#595959" font-family="Aptos Narrow,Aptos Narrow_MSFontService,sans-serif" font-weight="400" font-stretch="semi-condensed" font-size="41" transform="matrix(1 0 0 1 801.877 2493)">1.25</text></g><g><text fill="#595959" font-family="Aptos Narrow,Aptos Narrow_MSFontService,sans-serif" font-weight="400" font-stretch="semi-condensed" font-size="41" transform="matrix(1 0 0 1 822.777 2296)">1.5</text></g><g><text fill="#595959" font-family="Aptos Narrow,Aptos Narrow_MSFontService,sans-serif" font-weight="400" font-stretch="semi-condensed" font-size="41" transform="matrix(1 0 0 1 801.877 2100)">1.75</text></g><g><text fill="#595959" font-family="Aptos Narrow,Aptos Narrow_MSFontService,sans-serif" font-weight="400" font-stretch="semi-condensed" font-size="41" transform="matrix(1 0 0 1 1153.25 3528)">Matmul</text></g><g><text fill="#595959" font-family="Aptos Narrow,Aptos Narrow_MSFontService,sans-serif" font-weight="400" font-stretch="semi-condensed" font-size="41" transform="matrix(1 0 0 1 1744.83 3528)">Convolve</text></g><g><text fill="#595959" font-family="Aptos Narrow,Aptos Narrow_MSFontService,sans-serif" font-weight="400" font-stretch="semi-condensed" font-size="41" transform="matrix(1 0 0 1 2358.95 3528)">Softmax</text></g><g><text fill="#595959" font-family="Aptos Narrow,Aptos Narrow_MSFontService,sans-serif" font-weight="400" font-stretch="semi-condensed" font-size="41" transform="matrix(1 0 0 1 2924.64 3528)">InnerProduct</text></g><g><text fill="#595959" font-family="Aptos Narrow,Aptos Narrow_MSFontService,sans-serif" font-weight="400" font-stretch="semi-condensed" font-size="46" transform="matrix(6.12323e-17 -1 1 6.12323e-17 775.179 2857)">Speedup</text></g><g><text fill="#595959" font-family="Aptos Narrow,Aptos Narrow_MSFontService,sans-serif" font-weight="400" font-stretch="semi-condensed" font-size="64" transform="matrix(1 0 0 1 1869.37 1935)">Speedup on</text></g><g><text fill="#595959" font-family="Aptos Narrow,Aptos Narrow_MSFontService,sans-serif" font-weight="400" font-stretch="semi-condensed" font-size="64" transform="matrix(1 0 0 1 2173.63 1935)">: </text></g><g><text fill="#595959" font-family="Aptos Narrow,Aptos Narrow_MSFontService,sans-serif" font-weight="400" font-stretch="semi-condensed" font-size="64" transform="matrix(1 0 0 1 1450.75 2014)">Intel</text></g><g><text fill="#595959" font-family="Aptos Narrow,Aptos Narrow_MSFontService,sans-serif" font-weight="400" font-stretch="semi-condensed" font-size="64" transform="matrix(1 0 0 1 1576.33 2014)">Level</text></g><g><text fill="#595959" font-family="Aptos Narrow,Aptos Narrow_MSFontService,sans-serif" font-weight="400" font-stretch="semi-condensed" font-size="64" transform="matrix(1 0 0 1 1709.73 2014)">-</text></g><g><text fill="#595959" font-family="Aptos Narrow,Aptos Narrow_MSFontService,sans-serif" font-weight="400" font-stretch="semi-condensed" font-size="64" transform="matrix(1 0 0 1 1729.94 2014)">Zero Arc A770 Graphics, 15473 MB</text></g><g><rect x="1595" y="3596" width="22" height="23" fill="#E97132"/></g><g><text fill="#595959" font-family="Aptos Narrow,Aptos Narrow_MSFontService,sans-serif" font-weight="400" font-stretch="semi-condensed" font-size="41" transform="matrix(1 0 0 1 1626.77 3619)">ArraFire oneAPI</text></g><g><rect x="1934" y="3596" width="22" height="23" fill="#C00000"/></g><g><text fill="#595959" font-family="Aptos Narrow,Aptos Narrow_MSFontService,sans-serif" font-weight="400" font-stretch="semi-condensed" font-size="41" transform="matrix(1 0 0 1 1965.82 3619)">ArrayFire OpenCL</text></g><g><rect x="2309" y="3596" width="22" height="23" fill="#00B0F0"/></g><g><text fill="#595959" font-family="Aptos Narrow,Aptos Narrow_MSFontService,sans-serif" font-weight="400" font-stretch="semi-condensed" font-size="41" transform="matrix(1 0 0 1 2340.87 3619)">oneDNN</text></g><rect x="675.5" y="1840.5" width="2710" height="1834" stroke="#D9D9D9" stroke-width="3.4375" stroke-linejoin="round" stroke-miterlimit="10" fill="none"/></g></svg>