<svg width="2713" height="1837" xmlns="http://www.w3.org/2000/svg" xmlns:xlink="http://www.w3.org/1999/xlink" xml:space="preserve" overflow="hidden"><defs><clipPath id="clip0"><rect x="1680" y="111" width="2713" height="1837"/></clipPath></defs><g clip-path="url(#clip0)" transform="translate(-1680 -111)"><rect x="1681" y="112" width="2710" height="1834" fill="#FFFFFF"/><g><path d="M1887.5 1620.55 4340.5 1620.55M1887.5 1391.55 4340.5 1391.55M1887.5 1162.54 4340.5 1162.54M1887.5 933.531 4340.5 933.531M1887.5 704.523 4340.5 704.523M1887.5 475.516 4340.5 475.516" stroke="#F2F2F2" stroke-width="3.4375" stroke-linejoin="round" stroke-miterlimit="10" fill="none"/></g><g><path d="M1887.5 1505.55 4340.5 1505.55M1887.5 1276.54 4340.5 1276.54M1887.5 1047.53 4340.5 1047.53M1887.5 818.527 4340.5 818.527M1887.5 589.52 4340.5 589.52M1887.5 360.5 4340.5 360.5" stroke="#D9D9D9" stroke-width="3.4375" stroke-linejoin="round" stroke-miterlimit="10" fill="none"/></g><g><path d="M2005.07 1627.05 2112.07 1627.05 2112.07 1735 2005.07 1735ZM2618.09 1588.05 2725.09 1588.05 2725.09 1735 2618.09 1735ZM3231.11 1701.06 3338.11 1701.06 3338.11 1735 3231.11 1735ZM3844.13 655.021 3951.13 655.021 3951.13 1735 3844.13 1735Z" fill="#E97132"/></g><g><path d="M2141.07 1722.06 2248.07 1722.06 2248.07 1735 2141.07 1735ZM2754.09 1528.05 2861.09 1528.05 2861.09 1735 2754.09 1735ZM3367.11 1555.05 3474.11 1555.05 3474.11 1735 3367.11 1735ZM3980.13 931.031 4087.13 931.031 4087.13 1735 3980.13 1735Z" fill="#C00000"/></g><g><path d="M2277.07 1620.05 2384.08 1620.05 2384.08 1735 2277.07 1735ZM2890.09 1620.05 2997.1 1620.05 2997.1 1735 2890.09 1735ZM3503.11 1620.05 3610.12 1620.05 3610.12 1735 3503.11 1735ZM4116.14 1620.05 4223.14 1620.05 4223.14 1735 4116.14 1735Z" fill="#00B0F0"/></g><g><path d="M2058.57 1626.55 2058.57 1689.5M2058.57 1626.55 2058.57 1563.5M2048.5 1689.5 2068.5 1689.5M2048.5 1563.5 2068.5 1563.5" stroke="#595959" stroke-width="3.4375" stroke-linejoin="round" stroke-miterlimit="10" fill="none"/></g><g><path d="M2671.59 1588.55 2671.59 1612.5M2671.59 1588.55 2671.59 1563.5M2661.5 1612.5 2681.5 1612.5M2661.5 1563.5 2681.5 1563.5" stroke="#595959" stroke-width="3.4375" stroke-linejoin="round" stroke-miterlimit="10" fill="none"/></g><g><path d="M3284.61 1701.56 3284.61 1709.5M3284.61 1701.56 3284.61 1693.5M3274.5 1709.5 3295.5 1709.5M3274.5 1693.5 3295.5 1693.5" stroke="#595959" stroke-width="3.4375" stroke-linejoin="round" stroke-miterlimit="10" fill="none"/></g><g><path d="M3897.63 654.522 3897.63 752.5M3897.63 654.522 3897.63 556.5M3887.5 752.5 3908.5 752.5M3887.5 556.5 3908.5 556.5" stroke="#595959" stroke-width="3.4375" stroke-linejoin="round" stroke-miterlimit="10" fill="none"/></g><g><path d="M2194.57 1721.56 2194.57 1729.5M2194.57 1721.56 2194.57 1714.5M2184.5 1729.5 2204.5 1729.5M2184.5 1714.5 2204.5 1714.5" stroke="#595959" stroke-width="3.4375" stroke-linejoin="round" stroke-miterlimit="10" fill="none"/></g><g><path d="M2807.59 1527.55 2807.59 1560.5M2807.59 1527.55 2807.59 1495.5M2797.5 1560.5 2817.5 1560.5M2797.5 1495.5 2817.5 1495.5" stroke="#595959" stroke-width="3.4375" stroke-linejoin="round" stroke-miterlimit="10" fill="none"/></g><g><path d="M3420.61 1554.55 3420.61 1599.5M3420.61 1554.55 3420.61 1510.5M3410.5 1599.5 3430.5 1599.5M3410.5 1510.5 3430.5 1510.5" stroke="#595959" stroke-width="3.4375" stroke-linejoin="round" stroke-miterlimit="10" fill="none"/></g><g><path d="M4033.63 931.531 4033.63 963.5M4033.63 931.531 4033.63 898.5M4023.5 963.5 4044.5 963.5M4023.5 898.5 4044.5 898.5" stroke="#595959" stroke-width="3.4375" stroke-linejoin="round" stroke-miterlimit="10" fill="none"/></g><g><path d="M1887.5 1734.5 4340.5 1734.5" stroke="#D9D9D9" stroke-width="3.4375" stroke-linejoin="round" stroke-miterlimit="10" fill="none" fill-rule="evenodd"/></g><g><text fill="#595959" font-family="Aptos Narrow,Aptos Narrow_MSFontService,sans-serif" font-weight="400" font-stretch="semi-condensed" font-size="41" transform="matrix(1 0 0 1 1828.82 1746)">0</text></g><g><text fill="#595959" font-family="Aptos Narrow,Aptos Narrow_MSFontService,sans-serif" font-weight="400" font-stretch="semi-condensed" font-size="41" transform="matrix(1 0 0 1 1828.82 1517)">2</text></g><g><text fill="#595959" font-family="Aptos Narrow,Aptos Narrow_MSFontService,sans-serif" font-weight="400" font-stretch="semi-condensed" font-size="41" transform="matrix(1 0 0 1 1828.82 1288)">4</text></g><g><text fill="#595959" font-family="Aptos Narrow,Aptos Narrow_MSFontService,sans-serif" font-weight="400" font-stretch="semi-condensed" font-size="41" transform="matrix(1 0 0 1 1828.82 1059)">6</text></g><g><text fill="#595959" font-family="Aptos Narrow,Aptos Narrow_MSFontService,sans-serif" font-weight="400" font-stretch="semi-condensed" font-size="41" transform="matrix(1 0 0 1 1828.82 830)">8</text></g><g><text fill="#595959" font-family="Aptos Narrow,Aptos Narrow_MSFontService,sans-serif" font-weight="400" font-stretch="semi-condensed" font-size="41" transform="matrix(1 0 0 1 1807.92 601)">10</text></g><g><text fill="#595959" font-family="Aptos Narrow,Aptos Narrow_MSFontService,sans-serif" font-weight="400" font-stretch="semi-condensed" font-size="41" transform="matrix(1 0 0 1 1807.92 372)">12</text></g><g><text fill="#595959" font-family="Aptos Narrow,Aptos Narrow_MSFontService,sans-serif" font-weight="400" font-stretch="semi-condensed" font-size="41" transform="matrix(1 0 0 1 2131.62 1800)">Matmul</text></g><g><text fill="#595959" font-family="Aptos Narrow,Aptos Narrow_MSFontService,sans-serif" font-weight="400" font-stretch="semi-condensed" font-size="41" transform="matrix(1 0 0 1 2731.1 1800)">Convolve</text></g><g><text fill="#595959" font-family="Aptos Narrow,Aptos Narrow_MSFontService,sans-serif" font-weight="400" font-stretch="semi-condensed" font-size="41" transform="matrix(1 0 0 1 3353.13 1800)">Softmax</text></g><g><text fill="#595959" font-family="Aptos Narrow,Aptos Narrow_MSFontService,sans-serif" font-weight="400" font-stretch="semi-condensed" font-size="41" transform="matrix(1 0 0 1 3926.73 1800)">InnerProduct</text></g><g><text fill="#595959" font-family="Aptos Narrow,Aptos Narrow_MSFontService,sans-serif" font-weight="400" font-stretch="semi-condensed" font-size="46" transform="matrix(6.12323e-17 -1 1 6.12323e-17 1781.22 1129)">Speedup</text></g><g><text fill="#595959" font-family="Aptos Narrow,Aptos Narrow_MSFontService,sans-serif" font-weight="400" font-stretch="semi-condensed" font-size="64" transform="matrix(1 0 0 1 2875.41 207)">Speedup on</text></g><g><text fill="#595959" font-family="Aptos Narrow,Aptos Narrow_MSFontService,sans-serif" font-weight="400" font-stretch="semi-condensed" font-size="64" transform="matrix(1 0 0 1 3179.68 207)">: </text></g><g><text fill="#595959" font-family="Aptos Narrow,Aptos Narrow_MSFontService,sans-serif" font-weight="400" font-stretch="semi-condensed" font-size="64" transform="matrix(1 0 0 1 2456.79 286)">Intel</text></g><g><text fill="#595959" font-family="Aptos Narrow,Aptos Narrow_MSFontService,sans-serif" font-weight="400" font-stretch="semi-condensed" font-size="64" transform="matrix(1 0 0 1 2582.38 286)">Level</text></g><g><text fill="#595959" font-family="Aptos Narrow,Aptos Narrow_MSFontService,sans-serif" font-weight="400" font-stretch="semi-condensed" font-size="64" transform="matrix(1 0 0 1 2715.77 286)">-</text></g><g><text fill="#595959" font-family="Aptos Narrow,Aptos Narrow_MSFontService,sans-serif" font-weight="400" font-stretch="semi-condensed" font-size="64" transform="matrix(1 0 0 1 2735.99 286)">Zero Arc A770 Graphics, 15473 MB</text></g><g><rect x="2601" y="1868" width="22" height="23" fill="#E97132"/></g><g><text fill="#595959" font-family="Aptos Narrow,Aptos Narrow_MSFontService,sans-serif" font-weight="400" font-stretch="semi-condensed" font-size="41" transform="matrix(1 0 0 1 2632.81 1891)">ArraFire oneAPI</text></g><g><rect x="2940" y="1868" width="22" height="23" fill="#C00000"/></g><g><text fill="#595959" font-family="Aptos Narrow,Aptos Narrow_MSFontService,sans-serif" font-weight="400" font-stretch="semi-condensed" font-size="41" transform="matrix(1 0 0 1 2971.86 1891)">ArrayFire OpenCL</text></g><g><rect x="3315" y="1868" width="22" height="23" fill="#00B0F0"/></g><g><text fill="#595959" font-family="Aptos Narrow,Aptos Narrow_MSFontService,sans-serif" font-weight="400" font-stretch="semi-condensed" font-size="41" transform="matrix(1 0 0 1 3346.91 1891)">oneDNN</text></g><rect x="1681.5" y="112.5" width="2710" height="1834" stroke="#D9D9D9" stroke-width="3.4375" stroke-linejoin="round" stroke-miterlimit="10" fill="none"/></g></svg>