<svg width="2125" height="1424" xmlns="http://www.w3.org/2000/svg" xmlns:xlink="http://www.w3.org/1999/xlink" xml:space="preserve" overflow="hidden"><defs><clipPath id="clip0"><rect x="2928" y="455" width="2125" height="1424"/></clipPath><clipPath id="clip1"><rect x="3285" y="626" width="1303" height="1051"/></clipPath><clipPath id="clip2"><rect x="3285" y="626" width="1303" height="1051"/></clipPath><clipPath id="clip3"><rect x="3285" y="626" width="1303" height="1051"/></clipPath></defs><g clip-path="url(#clip0)" transform="translate(-2928 -455)"><rect x="2929" y="456" width="2122" height="1421" fill="#FFFFFF"/><g><path d="M3470.61 626.5 3470.61 1673.5M3656.62 626.5 3656.62 1673.5M3842.63 626.5 3842.63 1673.5M4027.63 626.5 4027.63 1673.5M4213.64 626.5 4213.64 1673.5M4399.64 626.5 4399.64 1673.5M4585.5 626.5 4585.5 1673.5" stroke="#D9D9D9" stroke-width="3.4375" stroke-linejoin="round" stroke-miterlimit="10" fill="none"/></g><g clip-path="url(#clip1)"><rect x="3285" y="1437" width="1077" height="124" fill="#196B24"/></g><g clip-path="url(#clip2)"><rect x="3285" y="1088" width="557" height="124" fill="#C00000"/></g><g clip-path="url(#clip3)"><rect x="3285" y="739" width="929" height="124" fill="#00B0F0"/></g><g><path d="M4362.64 1499.55 4320.5 1499.55M4362.64 1499.55 4403.5 1499.55M4320.5 1488.5 4320.5 1509.5M4403.5 1488.5 4403.5 1509.5" stroke="#595959" stroke-width="3.4375" stroke-linejoin="round" stroke-miterlimit="10" fill="none"/></g><g><path d="M3842.63 1149.54 3816.5 1149.54M3842.63 1149.54 3868.5 1149.54M3816.5 1139.5 3816.5 1160.5M3868.5 1139.5 3868.5 1160.5" stroke="#595959" stroke-width="3.4375" stroke-linejoin="round" stroke-miterlimit="10" fill="none"/></g><g><path d="M0 0 0.000360892 1047" stroke="#D9D9D9" stroke-width="3.4375" stroke-linejoin="round" stroke-miterlimit="10" fill="none" fill-rule="evenodd" transform="matrix(1 0 0 -1 3285.5 1673.5)"/></g><g><text fill="#FFFFFF" font-family="Aptos Narrow,Aptos Narrow_MSFontService,sans-serif" font-weight="400" font-stretch="semi-condensed" font-size="41" transform="matrix(1 0 0 1 3787.13 1513)">1.16</text></g><g><text fill="#FFFFFF" font-family="Aptos Narrow,Aptos Narrow_MSFontService,sans-serif" font-weight="400" font-stretch="semi-condensed" font-size="41" transform="matrix(1 0 0 1 3537.66 1164)">0.6</text></g><g><text fill="#FFFFFF" font-family="Aptos Narrow,Aptos Narrow_MSFontService,sans-serif" font-weight="400" font-stretch="semi-condensed" font-size="41" transform="matrix(1 0 0 1 3739.13 814)">1</text></g><g><text fill="#595959" font-family="Aptos Narrow,Aptos Narrow_MSFontService,sans-serif" font-weight="400" font-stretch="semi-condensed" font-size="41" transform="matrix(1 0 0 1 3275 1739)">0</text></g><g><text fill="#595959" font-family="Aptos Narrow,Aptos Narrow_MSFontService,sans-serif" font-weight="400" font-stretch="semi-condensed" font-size="41" transform="matrix(1 0 0 1 3444.84 1739)">0.2</text></g><g><text fill="#595959" font-family="Aptos Narrow,Aptos Narrow_MSFontService,sans-serif" font-weight="400" font-stretch="semi-condensed" font-size="41" transform="matrix(1 0 0 1 3630.49 1739)">0.4</text></g><g><text fill="#595959" font-family="Aptos Narrow,Aptos Narrow_MSFontService,sans-serif" font-weight="400" font-stretch="semi-condensed" font-size="41" transform="matrix(1 0 0 1 3816.14 1739)">0.6</text></g><g><text fill="#595959" font-family="Aptos Narrow,Aptos Narrow_MSFontService,sans-serif" font-weight="400" font-stretch="semi-condensed" font-size="41" transform="matrix(1 0 0 1 4001.8 1739)">0.8</text></g><g><text fill="#595959" font-family="Aptos Narrow,Aptos Narrow_MSFontService,sans-serif" font-weight="400" font-stretch="semi-condensed" font-size="41" transform="matrix(1 0 0 1 4203.26 1739)">1</text></g><g><text fill="#595959" font-family="Aptos Narrow,Aptos Narrow_MSFontService,sans-serif" font-weight="400" font-stretch="semi-condensed" font-size="41" transform="matrix(1 0 0 1 4373.1 1739)">1.2</text></g><g><text fill="#595959" font-family="Aptos Narrow,Aptos Narrow_MSFontService,sans-serif" font-weight="400" font-stretch="semi-condensed" font-size="41" transform="matrix(1 0 0 1 4558.76 1739)">1.4</text></g><g><text fill="#595959" font-family="Aptos Narrow,Aptos Narrow_MSFontService,sans-serif" font-weight="400" font-stretch="semi-condensed" font-size="41" transform="matrix(1 0 0 1 3010.59 1511)">ArraFire CUDA</text></g><g><text fill="#595959" font-family="Aptos Narrow,Aptos Narrow_MSFontService,sans-serif" font-weight="400" font-stretch="semi-condensed" font-size="41" transform="matrix(1 0 0 1 2958.54 1161)">ArrayFire OpenCL</text></g><g><text fill="#595959" font-family="Aptos Narrow,Aptos Narrow_MSFontService,sans-serif" font-weight="400" font-stretch="semi-condensed" font-size="41" transform="matrix(1 0 0 1 3106.56 812)">oneDNN</text></g><g><text fill="#595959" font-family="Aptos Narrow,Aptos Narrow_MSFontService,sans-serif" font-weight="400" font-stretch="semi-condensed" font-size="46" transform="matrix(1 0 0 1 3854.05 1807)">Speedup</text></g><g><text fill="#595959" font-family="Aptos Narrow,Aptos Narrow_MSFontService,sans-serif" font-weight="400" font-stretch="semi-condensed" font-size="64" transform="matrix(1 0 0 1 3612.65 550)">Approximate Overall Speedup</text></g><g><rect x="4683" y="1138" width="23" height="22" fill="#196B24"/></g><g><text fill="#595959" font-family="Aptos Narrow,Aptos Narrow_MSFontService,sans-serif" font-weight="400" font-stretch="semi-condensed" font-size="41" transform="matrix(1 0 0 1 4715.61 1160)">ArraFire CUDA</text></g><g><rect x="4683" y="1215" width="23" height="22.9996" fill="#C00000"/></g><g><text fill="#595959" font-family="Aptos Narrow,Aptos Narrow_MSFontService,sans-serif" font-weight="400" font-stretch="semi-condensed" font-size="41" transform="matrix(1 0 0 1 4715.61 1238)">ArrayFire OpenCL</text></g><g><rect x="4683" y="1292" width="23" height="22.9996" fill="#00B0F0"/></g><g><text fill="#595959" font-family="Aptos Narrow,Aptos Narrow_MSFontService,sans-serif" font-weight="400" font-stretch="semi-condensed" font-size="41" transform="matrix(1 0 0 1 4715.61 1315)">oneDNN</text></g><rect x="2929.5" y="456.5" width="2122" height="1421" stroke="#D9D9D9" stroke-width="3.4375" stroke-linejoin="round" stroke-miterlimit="10" fill="none"/></g></svg>