<svg width="2811" height="1944" xmlns="http://www.w3.org/2000/svg" xmlns:xlink="http://www.w3.org/1999/xlink" xml:space="preserve" overflow="hidden"><defs><clipPath id="clip0"><rect x="1680" y="111" width="2811" height="1944"/></clipPath></defs><g clip-path="url(#clip0)" transform="translate(-1680 -111)"><rect x="1681" y="112" width="2808" height="1941" fill="#FFFFFF"/><g><path d="M1919.5 1657.55 4438.5 1657.55M1919.5 1472.55 4438.5 1472.55M1919.5 1286.54 4438.5 1286.54M1919.5 1101.54 4438.5 1101.54M1919.5 916.53 4438.5 916.53M1919.5 731.524 4438.5 731.524M1919.5 545.518 4438.5 545.518M1919.5 360.5 4438.5 360.5" stroke="#D9D9D9" stroke-width="3.4375" stroke-linejoin="round" stroke-miterlimit="10" fill="none"/></g><g><path d="M2040.07 558.018 2150.07 558.018 2150.07 1843 2040.07 1843ZM2670.09 1387.05 2780.09 1387.05 2780.09 1843 2670.09 1843ZM3299.11 1446.05 3409.11 1446.05 3409.11 1843 3299.11 1843ZM3929.13 546.018 4039.13 546.018 4039.13 1843 3929.13 1843Z" fill="#196B24"/></g><g><path d="M2179.07 1500.05 2289.07 1500.05 2289.07 1843 2179.07 1843ZM2809.09 1507.05 2919.1 1507.05 2919.1 1843 2809.09 1843ZM3439.11 1449.05 3549.12 1449.05 3549.12 1843 3439.11 1843ZM4069.13 1046.03 4179.14 1046.03 4179.14 1843 4069.13 1843Z" fill="#C00000"/></g><g><path d="M2319.08 1102.04 2429.08 1102.04 2429.08 1843 2319.08 1843ZM2949.1 1102.04 3059.1 1102.04 3059.1 1843 2949.1 1843ZM3579.12 1102.04 3689.12 1102.04 3689.12 1843 3579.12 1843ZM4209.14 1102.04 4318.14 1102.04 4318.14 1843 4209.14 1843Z" fill="#00B0F0"/></g><g><path d="M2094.57 558.518 2094.57 645.5M2094.57 558.518 2094.57 471.5M2084.5 645.5 2105.5 645.5M2084.5 471.5 2105.5 471.5" stroke="#595959" stroke-width="3.4375" stroke-linejoin="round" stroke-miterlimit="10" fill="none"/></g><g><path d="M2724.59 1386.55 2724.59 1403.5M2724.59 1386.55 2724.59 1370.5M2714.5 1403.5 2734.5 1403.5M2714.5 1370.5 2734.5 1370.5" stroke="#595959" stroke-width="3.4375" stroke-linejoin="round" stroke-miterlimit="10" fill="none"/></g><g><path d="M3354.61 1446.55 3354.61 1455.5M3354.61 1446.55 3354.61 1437.5M3344.5 1455.5 3364.5 1455.5M3344.5 1437.5 3364.5 1437.5" stroke="#595959" stroke-width="3.4375" stroke-linejoin="round" stroke-miterlimit="10" fill="none"/></g><g><path d="M3984.63 545.518 3984.63 584.5M3984.63 545.518 3984.63 506.5M3974.5 584.5 3994.5 584.5M3974.5 506.5 3994.5 506.5" stroke="#595959" stroke-width="3.4375" stroke-linejoin="round" stroke-miterlimit="10" fill="none"/></g><g><path d="M2234.57 1499.55 2234.57 1523.5M2234.57 1499.55 2234.57 1476.5M2224.5 1523.5 2244.5 1523.5M2224.5 1476.5 2244.5 1476.5" stroke="#595959" stroke-width="3.4375" stroke-linejoin="round" stroke-miterlimit="10" fill="none"/></g><g><path d="M2864.59 1507.55 2864.59 1518.5M2864.59 1507.55 2864.59 1495.5M2853.5 1518.5 2874.5 1518.5M2853.5 1495.5 2874.5 1495.5" stroke="#595959" stroke-width="3.4375" stroke-linejoin="round" stroke-miterlimit="10" fill="none"/></g><g><path d="M3494.61 1448.55 3494.61 1455.5M3494.61 1448.55 3494.61 1442.5M3483.5 1455.5 3504.5 1455.5M3483.5 1442.5 3504.5 1442.5" stroke="#595959" stroke-width="3.4375" stroke-linejoin="round" stroke-miterlimit="10" fill="none"/></g><g><path d="M4123.64 1045.53 4123.64 1071.5M4123.64 1045.53 4123.64 1020.5M4113.5 1071.5 4134.5 1071.5M4113.5 1020.5 4134.5 1020.5" stroke="#595959" stroke-width="3.4375" stroke-linejoin="round" stroke-miterlimit="10" fill="none"/></g><g><path d="M1919.5 1842.5 4438.5 1842.5" stroke="#D9D9D9" stroke-width="3.4375" stroke-linejoin="round" stroke-miterlimit="10" fill="none" fill-rule="evenodd"/></g><g><text fill="#595959" font-family="Aptos Narrow,Aptos Narrow_MSFontService,sans-serif" font-weight="400" font-stretch="semi-condensed" font-size="41" transform="matrix(1 0 0 1 1860.44 1854)">0</text></g><g><text fill="#595959" font-family="Aptos Narrow,Aptos Narrow_MSFontService,sans-serif" font-weight="400" font-stretch="semi-condensed" font-size="41" transform="matrix(1 0 0 1 1807.92 1669)">0.25</text></g><g><text fill="#595959" font-family="Aptos Narrow,Aptos Narrow_MSFontService,sans-serif" font-weight="400" font-stretch="semi-condensed" font-size="41" transform="matrix(1 0 0 1 1828.82 1484)">0.5</text></g><g><text fill="#595959" font-family="Aptos Narrow,Aptos Narrow_MSFontService,sans-serif" font-weight="400" font-stretch="semi-condensed" font-size="41" transform="matrix(1 0 0 1 1807.92 1298)">0.75</text></g><g><text fill="#595959" font-family="Aptos Narrow,Aptos Narrow_MSFontService,sans-serif" font-weight="400" font-stretch="semi-condensed" font-size="41" transform="matrix(1 0 0 1 1860.44 1113)">1</text></g><g><text fill="#595959" font-family="Aptos Narrow,Aptos Narrow_MSFontService,sans-serif" font-weight="400" font-stretch="semi-condensed" font-size="41" transform="matrix(1 0 0 1 1807.92 928)">1.25</text></g><g><text fill="#595959" font-family="Aptos Narrow,Aptos Narrow_MSFontService,sans-serif" font-weight="400" font-stretch="semi-condensed" font-size="41" transform="matrix(1 0 0 1 1828.82 743)">1.5</text></g><g><text fill="#595959" font-family="Aptos Narrow,Aptos Narrow_MSFontService,sans-serif" font-weight="400" font-stretch="semi-condensed" font-size="41" transform="matrix(1 0 0 1 1807.92 557)">1.75</text></g><g><text fill="#595959" font-family="Aptos Narrow,Aptos Narrow_MSFontService,sans-serif" font-weight="400" font-stretch="semi-condensed" font-size="41" transform="matrix(1 0 0 1 1860.44 372)">2</text></g><g><text fill="#595959" font-family="Aptos Narrow,Aptos Narrow_MSFontService,sans-serif" font-weight="400" font-stretch="semi-condensed" font-size="41" transform="matrix(1 0 0 1 2171.61 1907)">Matmul</text></g><g><text fill="#595959" font-family="Aptos Narrow,Aptos Narrow_MSFontService,sans-serif" font-weight="400" font-stretch="semi-condensed" font-size="41" transform="matrix(1 0 0 1 2787.82 1907)">Convolve</text></g><g><text fill="#595959" font-family="Aptos Narrow,Aptos Narrow_MSFontService,sans-serif" font-weight="400" font-stretch="semi-condensed" font-size="41" transform="matrix(1 0 0 1 3426.58 1907)">Softmax</text></g><g><text fill="#595959" font-family="Aptos Narrow,Aptos Narrow_MSFontService,sans-serif" font-weight="400" font-stretch="semi-condensed" font-size="41" transform="matrix(1 0 0 1 4016.9 1907)">InnerProduct</text></g><g><text fill="#595959" font-family="Aptos Narrow,Aptos Narrow_MSFontService,sans-serif" font-weight="400" font-stretch="semi-condensed" font-size="46" transform="matrix(6.12323e-17 -1 1 6.12323e-17 1781.22 1185)">SpeedUp</text></g><g><text fill="#595959" font-family="Aptos Narrow,Aptos Narrow_MSFontService,sans-serif" font-weight="400" font-stretch="semi-condensed" font-size="64" transform="matrix(1 0 0 1 2924.67 207)">Speedup on</text></g><g><text fill="#595959" font-family="Aptos Narrow,Aptos Narrow_MSFontService,sans-serif" font-weight="400" font-stretch="semi-condensed" font-size="64" transform="matrix(1 0 0 1 3228.93 207)">: </text></g><g><text fill="#595959" font-family="Aptos Narrow,Aptos Narrow_MSFontService,sans-serif" font-weight="400" font-stretch="semi-condensed" font-size="64" transform="matrix(1 0 0 1 2763.29 286)">Nvidia Tesla T4 14930 MB</text></g><g><rect x="2659" y="1976" width="22" height="22" fill="#196B24"/></g><g><text fill="#595959" font-family="Aptos Narrow,Aptos Narrow_MSFontService,sans-serif" font-weight="400" font-stretch="semi-condensed" font-size="41" transform="matrix(1 0 0 1 2690.9 1999)">ArraFire CUDA</text></g><g><rect x="2981" y="1976" width="22" height="22" fill="#C00000"/></g><g><text fill="#595959" font-family="Aptos Narrow,Aptos Narrow_MSFontService,sans-serif" font-weight="400" font-stretch="semi-condensed" font-size="41" transform="matrix(1 0 0 1 3013.11 1999)">ArrayFire OpenCL</text></g><g><rect x="3355" y="1976" width="23" height="22" fill="#00B0F0"/></g><g><text fill="#595959" font-family="Aptos Narrow,Aptos Narrow_MSFontService,sans-serif" font-weight="400" font-stretch="semi-condensed" font-size="41" transform="matrix(1 0 0 1 3387.36 1999)">oneDNN</text></g><rect x="1681.5" y="112.5" width="2808" height="1941" stroke="#D9D9D9" stroke-width="3.4375" stroke-linejoin="round" stroke-miterlimit="10" fill="none"/></g></svg>