<svg width="2812" height="1944" xmlns="http://www.w3.org/2000/svg" xmlns:xlink="http://www.w3.org/1999/xlink" xml:space="preserve" overflow="hidden"><defs><clipPath id="clip0"><rect x="433" y="1977" width="2812" height="1944"/></clipPath></defs><g clip-path="url(#clip0)" transform="translate(-433 -1977)"><rect x="434" y="1978" width="2809" height="1941" fill="#FFFFFF"/><g><path d="M672.5 3522.62 3192.5 3522.62M672.5 3337.61 3192.5 3337.61M672.5 3152.6 3192.5 3152.6M672.5 2966.6 3192.5 2966.6M672.5 2781.59 3192.5 2781.59M672.5 2596.59 3192.5 2596.59M672.5 2411.58 3192.5 2411.58M672.5 2226.5 3192.5 2226.5" stroke="#D9D9D9" stroke-width="3.4375" stroke-linejoin="round" stroke-miterlimit="10" fill="none"/></g><g><path d="M793.026 2424.08 903.03 2424.08 903.03 3708 793.026 3708ZM1423.05 3249.11 1533.05 3249.11 1533.05 3708 1423.05 3708ZM2053.07 3312.11 2163.07 3312.11 2163.07 3708 2053.07 3708ZM2683.09 2397.08 2793.09 2397.08 2793.09 3708 2683.09 3708Z" fill="#196B24"/></g><g><path d="M933.031 3365.11 1043.03 3365.11 1043.03 3708 933.031 3708ZM1563.05 3372.11 1672.05 3372.11 1672.05 3708 1563.05 3708ZM2192.07 3314.11 2302.08 3314.11 2302.08 3708 2192.07 3708ZM2822.09 2891.09 2932.1 2891.09 2932.1 3708 2822.09 3708Z" fill="#C00000"/></g><g><path d="M1072.04 2967.1 1182.04 2967.1 1182.04 3708 1072.04 3708ZM1702.06 2967.1 1812.06 2967.1 1812.06 3708 1702.06 3708ZM2332.08 2967.1 2442.08 2967.1 2442.08 3708 2332.08 3708ZM2962.1 2967.1 3072.1 2967.1 3072.1 3708 2962.1 3708Z" fill="#00B0F0"/></g><g><path d="M848.528 2423.58 848.528 2510.5M848.528 2423.58 848.528 2336.5M837.5 2510.5 858.5 2510.5M837.5 2336.5 858.5 2336.5" stroke="#595959" stroke-width="3.4375" stroke-linejoin="round" stroke-miterlimit="10" fill="none"/></g><g><path d="M1477.55 3249.61 1477.55 3267.5M1477.55 3249.61 1477.55 3231.5M1467.5 3267.5 1488.5 3267.5M1467.5 3231.5 1488.5 3231.5" stroke="#595959" stroke-width="3.4375" stroke-linejoin="round" stroke-miterlimit="10" fill="none"/></g><g><path d="M2107.57 3311.61 2107.57 3320.5M2107.57 3311.61 2107.57 3303.5M2097.5 3320.5 2118.5 3320.5M2097.5 3303.5 2118.5 3303.5" stroke="#595959" stroke-width="3.4375" stroke-linejoin="round" stroke-miterlimit="10" fill="none"/></g><g><path d="M2737.59 2396.58 2737.59 2439.5M2737.59 2396.58 2737.59 2353.5M2727.5 2439.5 2748.5 2439.5M2727.5 2353.5 2748.5 2353.5" stroke="#595959" stroke-width="3.4375" stroke-linejoin="round" stroke-miterlimit="10" fill="none"/></g><g><path d="M987.533 3365.61 987.533 3389.5M987.533 3365.61 987.533 3341.5M977.5 3389.5 998.5 3389.5M977.5 3341.5 998.5 3341.5" stroke="#595959" stroke-width="3.4375" stroke-linejoin="round" stroke-miterlimit="10" fill="none"/></g><g><path d="M1617.55 3372.61 1617.55 3384.5M1617.55 3372.61 1617.55 3360.5M1607.5 3384.5 1627.5 3384.5M1607.5 3360.5 1627.5 3360.5" stroke="#595959" stroke-width="3.4375" stroke-linejoin="round" stroke-miterlimit="10" fill="none"/></g><g><path d="M2247.57 3314.61 2247.57 3320.5M2247.57 3314.61 2247.57 3307.5M2237.5 3320.5 2257.5 3320.5M2237.5 3307.5 2257.5 3307.5" stroke="#595959" stroke-width="3.4375" stroke-linejoin="round" stroke-miterlimit="10" fill="none"/></g><g><path d="M2877.59 2890.6 2877.59 2923.5M2877.59 2890.6 2877.59 2858.5M2867.5 2923.5 2887.5 2923.5M2867.5 2858.5 2887.5 2858.5" stroke="#595959" stroke-width="3.4375" stroke-linejoin="round" stroke-miterlimit="10" fill="none"/></g><g><path d="M672.5 3707.5 3192.5 3707.5" stroke="#D9D9D9" stroke-width="3.4375" stroke-linejoin="round" stroke-miterlimit="10" fill="none" fill-rule="evenodd"/></g><g><text fill="#595959" font-family="Aptos Narrow,Aptos Narrow_MSFontService,sans-serif" font-weight="400" font-stretch="semi-condensed" font-size="41" transform="matrix(1 0 0 1 613.777 3719)">0</text></g><g><text fill="#595959" font-family="Aptos Narrow,Aptos Narrow_MSFontService,sans-serif" font-weight="400" font-stretch="semi-condensed" font-size="41" transform="matrix(1 0 0 1 561.252 3534)">0.25</text></g><g><text fill="#595959" font-family="Aptos Narrow,Aptos Narrow_MSFontService,sans-serif" font-weight="400" font-stretch="semi-condensed" font-size="41" transform="matrix(1 0 0 1 582.152 3349)">0.5</text></g><g><text fill="#595959" font-family="Aptos Narrow,Aptos Narrow_MSFontService,sans-serif" font-weight="400" font-stretch="semi-condensed" font-size="41" transform="matrix(1 0 0 1 561.252 3164)">0.75</text></g><g><text fill="#595959" font-family="Aptos Narrow,Aptos Narrow_MSFontService,sans-serif" font-weight="400" font-stretch="semi-condensed" font-size="41" transform="matrix(1 0 0 1 613.777 2979)">1</text></g><g><text fill="#595959" font-family="Aptos Narrow,Aptos Narrow_MSFontService,sans-serif" font-weight="400" font-stretch="semi-condensed" font-size="41" transform="matrix(1 0 0 1 561.252 2793)">1.25</text></g><g><text fill="#595959" font-family="Aptos Narrow,Aptos Narrow_MSFontService,sans-serif" font-weight="400" font-stretch="semi-condensed" font-size="41" transform="matrix(1 0 0 1 582.152 2608)">1.5</text></g><g><text fill="#595959" font-family="Aptos Narrow,Aptos Narrow_MSFontService,sans-serif" font-weight="400" font-stretch="semi-condensed" font-size="41" transform="matrix(1 0 0 1 561.252 2423)">1.75</text></g><g><text fill="#595959" font-family="Aptos Narrow,Aptos Narrow_MSFontService,sans-serif" font-weight="400" font-stretch="semi-condensed" font-size="41" transform="matrix(1 0 0 1 613.777 2238)">2</text></g><g><text fill="#595959" font-family="Aptos Narrow,Aptos Narrow_MSFontService,sans-serif" font-weight="400" font-stretch="semi-condensed" font-size="41" transform="matrix(1 0 0 1 924.944 3773)">Matmul</text></g><g><text fill="#595959" font-family="Aptos Narrow,Aptos Narrow_MSFontService,sans-serif" font-weight="400" font-stretch="semi-condensed" font-size="41" transform="matrix(1 0 0 1 1541.16 3773)">Convolve</text></g><g><text fill="#595959" font-family="Aptos Narrow,Aptos Narrow_MSFontService,sans-serif" font-weight="400" font-stretch="semi-condensed" font-size="41" transform="matrix(1 0 0 1 2179.91 3773)">Softmax</text></g><g><text fill="#595959" font-family="Aptos Narrow,Aptos Narrow_MSFontService,sans-serif" font-weight="400" font-stretch="semi-condensed" font-size="41" transform="matrix(1 0 0 1 2770.24 3773)">InnerProduct</text></g><g><text fill="#595959" font-family="Aptos Narrow,Aptos Narrow_MSFontService,sans-serif" font-weight="400" font-stretch="semi-condensed" font-size="46" transform="matrix(6.12323e-17 -1 1 6.12323e-17 534.554 3051)">SpeedUp</text></g><g><text fill="#595959" font-family="Aptos Narrow,Aptos Narrow_MSFontService,sans-serif" font-weight="400" font-stretch="semi-condensed" font-size="64" transform="matrix(1 0 0 1 1678 2072)">Speedup on</text></g><g><text fill="#595959" font-family="Aptos Narrow,Aptos Narrow_MSFontService,sans-serif" font-weight="400" font-stretch="semi-condensed" font-size="64" transform="matrix(1 0 0 1 1982.27 2072)">: </text></g><g><text fill="#595959" font-family="Aptos Narrow,Aptos Narrow_MSFontService,sans-serif" font-weight="400" font-stretch="semi-condensed" font-size="64" transform="matrix(1 0 0 1 1516.62 2151)">Nvidia Tesla T4 14930 MB</text></g><g><rect x="1412" y="3841" width="23" height="23" fill="#196B24"/></g><g><text fill="#595959" font-family="Aptos Narrow,Aptos Narrow_MSFontService,sans-serif" font-weight="400" font-stretch="semi-condensed" font-size="41" transform="matrix(1 0 0 1 1444.24 3864)">ArraFire CUDA</text></g><g><rect x="1734" y="3841" width="23" height="23" fill="#C00000"/></g><g><text fill="#595959" font-family="Aptos Narrow,Aptos Narrow_MSFontService,sans-serif" font-weight="400" font-stretch="semi-condensed" font-size="41" transform="matrix(1 0 0 1 1766.44 3864)">ArrayFire OpenCL</text></g><g><rect x="2108" y="3841" width="23" height="23" fill="#00B0F0"/></g><g><text fill="#595959" font-family="Aptos Narrow,Aptos Narrow_MSFontService,sans-serif" font-weight="400" font-stretch="semi-condensed" font-size="41" transform="matrix(1 0 0 1 2140.69 3864)">oneDNN</text></g><rect x="434.5" y="1978.5" width="2809" height="1941" stroke="#D9D9D9" stroke-width="3.4375" stroke-linejoin="round" stroke-miterlimit="10" fill="none"/></g></svg>