<svg width="2786" height="1960" xmlns="http://www.w3.org/2000/svg" xmlns:xlink="http://www.w3.org/1999/xlink" xml:space="preserve" overflow="hidden"><defs><clipPath id="clip0"><rect x="1680" y="111" width="2786" height="1960"/></clipPath></defs><g clip-path="url(#clip0)" transform="translate(-1680 -111)"><rect x="1681" y="112" width="2783" height="1957" fill="#FFFFFF"/><g><path d="M1898.5 1608.55 4413.5 1608.55M1898.5 1359.54 4413.5 1359.54M1898.5 1109.54 4413.5 1109.54M1898.5 859.528 4413.5 859.528M1898.5 610.52 4413.5 610.52M1898.5 360.5 4413.5 360.5" stroke="#D9D9D9" stroke-width="3.4375" stroke-linejoin="round" stroke-miterlimit="10" fill="none"/></g><g><path d="M2019.07 1300.04 2128.07 1300.04 2128.07 1859 2019.07 1859ZM2647.09 1705.06 2757.09 1705.06 2757.09 1859 2647.09 1859ZM3276.11 1740.06 3386.11 1740.06 3386.11 1859 3276.11 1859ZM3905.13 1360.04 4015.13 1360.04 4015.13 1859 3905.13 1859Z" fill="#196B24"/></g><g><path d="M2158.07 1473.05 2268.07 1473.05 2268.07 1859 2158.07 1859ZM2787.09 1654.05 2897.09 1654.05 2897.09 1859 2787.09 1859ZM3416.11 1781.06 3525.12 1781.06 3525.12 1859 3416.11 1859ZM4044.13 1153.04 4154.14 1153.04 4154.14 1859 4044.13 1859Z" fill="#C00000"/></g><g><path d="M2297.08 610.02 2407.08 610.02 2407.08 1859 2297.08 1859ZM2926.1 610.02 3036.1 610.02 3036.1 1859 2926.1 1859ZM3555.12 610.02 3665.12 610.02 3665.12 1859 3555.12 1859ZM4184.14 610.02 4293.14 610.02 4293.14 1859 4184.14 1859Z" fill="#00B0F0"/></g><g><path d="M2073.57 1299.54 2073.57 1316.5M2073.57 1299.54 2073.57 1283.5M2063.5 1316.5 2083.5 1316.5M2063.5 1283.5 2083.5 1283.5" stroke="#595959" stroke-width="3.4375" stroke-linejoin="round" stroke-miterlimit="10" fill="none"/></g><g><path d="M2702.59 1704.56 2702.59 1710.5M2702.59 1704.56 2702.59 1698.5M2692.5 1710.5 2712.5 1710.5M2692.5 1698.5 2712.5 1698.5" stroke="#595959" stroke-width="3.4375" stroke-linejoin="round" stroke-miterlimit="10" fill="none"/></g><g><path d="M3331.61 1740.56 3331.61 1743.5M3331.61 1740.56 3331.61 1737.5M3320.5 1743.5 3341.5 1743.5M3320.5 1737.5 3341.5 1737.5" stroke="#595959" stroke-width="3.4375" stroke-linejoin="round" stroke-miterlimit="10" fill="none"/></g><g><path d="M3959.63 1360.54 3959.63 1377.5M3959.63 1360.54 3959.63 1342.5M3949.5 1377.5 3970.5 1377.5M3949.5 1342.5 3970.5 1342.5" stroke="#595959" stroke-width="3.4375" stroke-linejoin="round" stroke-miterlimit="10" fill="none"/></g><g><path d="M2212.57 1472.55 2212.57 1546.5M2212.57 1472.55 2212.57 1399.5M2202.5 1546.5 2223.5 1546.5M2202.5 1399.5 2223.5 1399.5" stroke="#595959" stroke-width="3.4375" stroke-linejoin="round" stroke-miterlimit="10" fill="none"/></g><g><path d="M2841.59 1653.55 2841.59 1675.5M2841.59 1653.55 2841.59 1632.5M2831.5 1675.5 2852.5 1675.5M2831.5 1632.5 2852.5 1632.5" stroke="#595959" stroke-width="3.4375" stroke-linejoin="round" stroke-miterlimit="10" fill="none"/></g><g><path d="M3470.61 1781.56 3470.61 1782.5M3470.61 1781.56 3470.61 1779.5M3460.5 1782.5 3480.5 1782.5M3460.5 1779.5 3480.5 1779.5" stroke="#595959" stroke-width="3.4375" stroke-linejoin="round" stroke-miterlimit="10" fill="none"/></g><g><path d="M4099.63 1152.54 4099.63 1182.5M4099.63 1152.54 4099.63 1123.5M4089.5 1182.5 4109.5 1182.5M4089.5 1123.5 4109.5 1123.5" stroke="#595959" stroke-width="3.4375" stroke-linejoin="round" stroke-miterlimit="10" fill="none"/></g><g><path d="M1898.5 1858.5 4413.5 1858.5" stroke="#D9D9D9" stroke-width="3.4375" stroke-linejoin="round" stroke-miterlimit="10" fill="none" fill-rule="evenodd"/></g><g><text fill="#595959" font-family="Aptos Narrow,Aptos Narrow_MSFontService,sans-serif" font-weight="400" font-stretch="semi-condensed" font-size="41" transform="matrix(1 0 0 1 1839.54 1870)">0</text></g><g><text fill="#595959" font-family="Aptos Narrow,Aptos Narrow_MSFontService,sans-serif" font-weight="400" font-stretch="semi-condensed" font-size="41" transform="matrix(1 0 0 1 1807.92 1620)">0.2</text></g><g><text fill="#595959" font-family="Aptos Narrow,Aptos Narrow_MSFontService,sans-serif" font-weight="400" font-stretch="semi-condensed" font-size="41" transform="matrix(1 0 0 1 1807.92 1371)">0.4</text></g><g><text fill="#595959" font-family="Aptos Narrow,Aptos Narrow_MSFontService,sans-serif" font-weight="400" font-stretch="semi-condensed" font-size="41" transform="matrix(1 0 0 1 1807.92 1121)">0.6</text></g><g><text fill="#595959" font-family="Aptos Narrow,Aptos Narrow_MSFontService,sans-serif" font-weight="400" font-stretch="semi-condensed" font-size="41" transform="matrix(1 0 0 1 1807.92 871)">0.8</text></g><g><text fill="#595959" font-family="Aptos Narrow,Aptos Narrow_MSFontService,sans-serif" font-weight="400" font-stretch="semi-condensed" font-size="41" transform="matrix(1 0 0 1 1839.54 622)">1</text></g><g><text fill="#595959" font-family="Aptos Narrow,Aptos Narrow_MSFontService,sans-serif" font-weight="400" font-stretch="semi-condensed" font-size="41" transform="matrix(1 0 0 1 1807.92 372)">1.2</text></g><g><text fill="#595959" font-family="Aptos Narrow,Aptos Narrow_MSFontService,sans-serif" font-weight="400" font-stretch="semi-condensed" font-size="41" transform="matrix(1 0 0 1 2150.17 1923)">Matmul</text></g><g><text fill="#595959" font-family="Aptos Narrow,Aptos Narrow_MSFontService,sans-serif" font-weight="400" font-stretch="semi-condensed" font-size="41" transform="matrix(1 0 0 1 2765.31 1923)">Convolve</text></g><g><text fill="#595959" font-family="Aptos Narrow,Aptos Narrow_MSFontService,sans-serif" font-weight="400" font-stretch="semi-condensed" font-size="41" transform="matrix(1 0 0 1 3402.98 1923)">Softmax</text></g><g><text fill="#595959" font-family="Aptos Narrow,Aptos Narrow_MSFontService,sans-serif" font-weight="400" font-stretch="semi-condensed" font-size="41" transform="matrix(1 0 0 1 3992.23 1923)">InnerProduct</text></g><g><text fill="#595959" font-family="Aptos Narrow,Aptos Narrow_MSFontService,sans-serif" font-weight="400" font-stretch="semi-condensed" font-size="46" transform="matrix(6.12323e-17 -1 1 6.12323e-17 1781.22 1193)">SpeedUp</text></g><g><text fill="#595959" font-family="Aptos Narrow,Aptos Narrow_MSFontService,sans-serif" font-weight="400" font-stretch="semi-condensed" font-size="64" transform="matrix(1 0 0 1 2898.88 207)">Speedup on</text></g><g><text fill="#595959" font-family="Aptos Narrow,Aptos Narrow_MSFontService,sans-serif" font-weight="400" font-stretch="semi-condensed" font-size="64" transform="matrix(1 0 0 1 3203.14 207)">: </text></g><g><text fill="#595959" font-family="Aptos Narrow,Aptos Narrow_MSFontService,sans-serif" font-weight="400" font-stretch="semi-condensed" font-size="64" transform="matrix(1 0 0 1 2488.88 286)">Intel</text></g><g><text fill="#595959" font-family="Aptos Narrow,Aptos Narrow_MSFontService,sans-serif" font-weight="400" font-stretch="semi-condensed" font-size="64" transform="matrix(1 0 0 1 2614.46 286)">Xeon 8</text></g><g><text fill="#595959" font-family="Aptos Narrow,Aptos Narrow_MSFontService,sans-serif" font-weight="400" font-stretch="semi-condensed" font-size="64" transform="matrix(1 0 0 1 2786.82 286)">-</text></g><g><text fill="#595959" font-family="Aptos Narrow,Aptos Narrow_MSFontService,sans-serif" font-weight="400" font-stretch="semi-condensed" font-size="64" transform="matrix(1 0 0 1 2806.45 286)">core CPU @ 2.30GHz, 32082 MB</text></g><g><rect x="2646" y="1992" width="23" height="23" fill="#196B24"/></g><g><text fill="#595959" font-family="Aptos Narrow,Aptos Narrow_MSFontService,sans-serif" font-weight="400" font-stretch="semi-condensed" font-size="41" transform="matrix(1 0 0 1 2678.3 2015)">ArraFire CUDA</text></g><g><rect x="2968" y="1992" width="23" height="23" fill="#C00000"/></g><g><text fill="#595959" font-family="Aptos Narrow,Aptos Narrow_MSFontService,sans-serif" font-weight="400" font-stretch="semi-condensed" font-size="41" transform="matrix(1 0 0 1 3000.5 2015)">ArrayFire OpenCL</text></g><g><rect x="3342" y="1992" width="23" height="23" fill="#00B0F0"/></g><g><text fill="#595959" font-family="Aptos Narrow,Aptos Narrow_MSFontService,sans-serif" font-weight="400" font-stretch="semi-condensed" font-size="41" transform="matrix(1 0 0 1 3374.75 2015)">oneDNN</text></g><rect x="1681.5" y="112.5" width="2783" height="1957" stroke="#D9D9D9" stroke-width="3.4375" stroke-linejoin="round" stroke-miterlimit="10" fill="none"/></g></svg>