<svg width="2786" height="1960" xmlns="http://www.w3.org/2000/svg" xmlns:xlink="http://www.w3.org/1999/xlink" xml:space="preserve" overflow="hidden"><defs><clipPath id="clip0"><rect x="1245" y="1156" width="2786" height="1960"/></clipPath></defs><g clip-path="url(#clip0)" transform="translate(-1245 -1156)"><rect x="1246" y="1157" width="2783" height="1957" fill="#FFFFFF"/><g><path d="M1463.5 2653.59 3978.5 2653.59M1463.5 2404.58 3978.5 2404.58M1463.5 2154.57 3978.5 2154.57M1463.5 1904.56 3978.5 1904.56M1463.5 1655.55 3978.5 1655.55M1463.5 1405.5 3978.5 1405.5" stroke="#D9D9D9" stroke-width="3.4375" stroke-linejoin="round" stroke-miterlimit="10" fill="none"/></g><g><path d="M1583.05 2344.08 1693.06 2344.08 1693.06 2904 1583.05 2904ZM2212.07 2750.09 2322.08 2750.09 2322.08 2904 2212.07 2904ZM2841.09 2785.09 2951.1 2785.09 2951.1 2904 2841.09 2904ZM3470.11 2405.08 3579.12 2405.08 3579.12 2904 3470.11 2904Z" fill="#E97132"/></g><g><path d="M1723.06 2518.08 1832.06 2518.08 1832.06 2904 1723.06 2904ZM2351.08 2699.09 2461.08 2699.09 2461.08 2904 2351.08 2904ZM2980.1 2826.09 3090.1 2826.09 3090.1 2904 2980.1 2904ZM3609.12 2198.07 3719.12 2198.07 3719.12 2904 3609.12 2904Z" fill="#C00000"/></g><g><path d="M1862.06 1655.05 1972.06 1655.05 1972.06 2904 1862.06 2904ZM2491.08 1655.05 2600.09 1655.05 2600.09 2904 2491.08 2904ZM3120.1 1655.05 3229.11 1655.05 3229.11 2904 3120.1 2904ZM3748.12 1655.05 3858.13 1655.05 3858.13 2904 3748.12 2904Z" fill="#00B0F0"/></g><g><path d="M1638.55 2344.58 1638.55 2361.5M1638.55 2344.58 1638.55 2328.5M1627.5 2361.5 1648.5 2361.5M1627.5 2328.5 1648.5 2328.5" stroke="#595959" stroke-width="3.4375" stroke-linejoin="round" stroke-miterlimit="10" fill="none"/></g><g><path d="M2266.57 2749.59 2266.57 2755.5M2266.57 2749.59 2266.57 2743.5M2256.5 2755.5 2277.5 2755.5M2256.5 2743.5 2277.5 2743.5" stroke="#595959" stroke-width="3.4375" stroke-linejoin="round" stroke-miterlimit="10" fill="none"/></g><g><path d="M2895.6 2785.59 2895.6 2788.5M2895.6 2785.59 2895.6 2782.5M2885.5 2788.5 2906.5 2788.5M2885.5 2782.5 2906.5 2782.5" stroke="#595959" stroke-width="3.4375" stroke-linejoin="round" stroke-miterlimit="10" fill="none"/></g><g><path d="M3524.62 2405.58 3524.62 2422.5M3524.62 2405.58 3524.62 2387.5M3514.5 2422.5 3534.5 2422.5M3514.5 2387.5 3534.5 2387.5" stroke="#595959" stroke-width="3.4375" stroke-linejoin="round" stroke-miterlimit="10" fill="none"/></g><g><path d="M1777.56 2517.58 1777.56 2591.5M1777.56 2517.58 1777.56 2444.5M1767.5 2591.5 1787.5 2591.5M1767.5 2444.5 1787.5 2444.5" stroke="#595959" stroke-width="3.4375" stroke-linejoin="round" stroke-miterlimit="10" fill="none"/></g><g><path d="M2406.58 2698.59 2406.58 2720.5M2406.58 2698.59 2406.58 2677.5M2396.5 2720.5 2416.5 2720.5M2396.5 2677.5 2416.5 2677.5" stroke="#595959" stroke-width="3.4375" stroke-linejoin="round" stroke-miterlimit="10" fill="none"/></g><g><path d="M3035.6 2826.59 3035.6 2827.5M3035.6 2826.59 3035.6 2824.5M3024.5 2827.5 3045.5 2827.5M3024.5 2824.5 3045.5 2824.5" stroke="#595959" stroke-width="3.4375" stroke-linejoin="round" stroke-miterlimit="10" fill="none"/></g><g><path d="M3663.62 2197.57 3663.62 2227.5M3663.62 2197.57 3663.62 2168.5M3653.5 2227.5 3674.5 2227.5M3653.5 2168.5 3674.5 2168.5" stroke="#595959" stroke-width="3.4375" stroke-linejoin="round" stroke-miterlimit="10" fill="none"/></g><g><path d="M1463.5 2903.5 3978.5 2903.5" stroke="#D9D9D9" stroke-width="3.4375" stroke-linejoin="round" stroke-miterlimit="10" fill="none" fill-rule="evenodd"/></g><g><text fill="#595959" font-family="Aptos Narrow,Aptos Narrow_MSFontService,sans-serif" font-weight="400" font-stretch="semi-condensed" font-size="41" transform="matrix(1 0 0 1 1404.13 2915)">0</text></g><g><text fill="#595959" font-family="Aptos Narrow,Aptos Narrow_MSFontService,sans-serif" font-weight="400" font-stretch="semi-condensed" font-size="41" transform="matrix(1 0 0 1 1372.5 2665)">0.2</text></g><g><text fill="#595959" font-family="Aptos Narrow,Aptos Narrow_MSFontService,sans-serif" font-weight="400" font-stretch="semi-condensed" font-size="41" transform="matrix(1 0 0 1 1372.5 2416)">0.4</text></g><g><text fill="#595959" font-family="Aptos Narrow,Aptos Narrow_MSFontService,sans-serif" font-weight="400" font-stretch="semi-condensed" font-size="41" transform="matrix(1 0 0 1 1372.5 2166)">0.6</text></g><g><text fill="#595959" font-family="Aptos Narrow,Aptos Narrow_MSFontService,sans-serif" font-weight="400" font-stretch="semi-condensed" font-size="41" transform="matrix(1 0 0 1 1372.5 1916)">0.8</text></g><g><text fill="#595959" font-family="Aptos Narrow,Aptos Narrow_MSFontService,sans-serif" font-weight="400" font-stretch="semi-condensed" font-size="41" transform="matrix(1 0 0 1 1404.13 1667)">1</text></g><g><text fill="#595959" font-family="Aptos Narrow,Aptos Narrow_MSFontService,sans-serif" font-weight="400" font-stretch="semi-condensed" font-size="41" transform="matrix(1 0 0 1 1372.5 1417)">1.2</text></g><g><text fill="#595959" font-family="Aptos Narrow,Aptos Narrow_MSFontService,sans-serif" font-weight="400" font-stretch="semi-condensed" font-size="41" transform="matrix(1 0 0 1 1714.76 2968)">Matmul</text></g><g><text fill="#595959" font-family="Aptos Narrow,Aptos Narrow_MSFontService,sans-serif" font-weight="400" font-stretch="semi-condensed" font-size="41" transform="matrix(1 0 0 1 2329.89 2968)">Convolve</text></g><g><text fill="#595959" font-family="Aptos Narrow,Aptos Narrow_MSFontService,sans-serif" font-weight="400" font-stretch="semi-condensed" font-size="41" transform="matrix(1 0 0 1 2967.57 2968)">Softmax</text></g><g><text fill="#595959" font-family="Aptos Narrow,Aptos Narrow_MSFontService,sans-serif" font-weight="400" font-stretch="semi-condensed" font-size="41" transform="matrix(1 0 0 1 3556.82 2968)">InnerProduct</text></g><g><text fill="#595959" font-family="Aptos Narrow,Aptos Narrow_MSFontService,sans-serif" font-weight="400" font-stretch="semi-condensed" font-size="46" transform="matrix(6.12323e-17 -1 1 6.12323e-17 1345.8 2238)">SpeedUp</text></g><g><text fill="#595959" font-family="Aptos Narrow,Aptos Narrow_MSFontService,sans-serif" font-weight="400" font-stretch="semi-condensed" font-size="64" transform="matrix(1 0 0 1 2463.46 1252)">Speedup on</text></g><g><text fill="#595959" font-family="Aptos Narrow,Aptos Narrow_MSFontService,sans-serif" font-weight="400" font-stretch="semi-condensed" font-size="64" transform="matrix(1 0 0 1 2767.73 1252)">: </text></g><g><text fill="#595959" font-family="Aptos Narrow,Aptos Narrow_MSFontService,sans-serif" font-weight="400" font-stretch="semi-condensed" font-size="64" transform="matrix(1 0 0 1 2053.46 1331)">Intel</text></g><g><text fill="#595959" font-family="Aptos Narrow,Aptos Narrow_MSFontService,sans-serif" font-weight="400" font-stretch="semi-condensed" font-size="64" transform="matrix(1 0 0 1 2179.04 1331)">Xeon 8</text></g><g><text fill="#595959" font-family="Aptos Narrow,Aptos Narrow_MSFontService,sans-serif" font-weight="400" font-stretch="semi-condensed" font-size="64" transform="matrix(1 0 0 1 2351.4 1331)">-</text></g><g><text fill="#595959" font-family="Aptos Narrow,Aptos Narrow_MSFontService,sans-serif" font-weight="400" font-stretch="semi-condensed" font-size="64" transform="matrix(1 0 0 1 2371.04 1331)">core CPU @ 2.30GHz, 32082 MB</text></g><g><rect x="2202" y="3037" width="22" height="23" fill="#E97132"/></g><g><text fill="#595959" font-family="Aptos Narrow,Aptos Narrow_MSFontService,sans-serif" font-weight="400" font-stretch="semi-condensed" font-size="41" transform="matrix(1 0 0 1 2234.06 3060)">ArraFire oneAPI</text></g><g><rect x="2541" y="3037" width="22" height="23" fill="#C00000"/></g><g><text fill="#595959" font-family="Aptos Narrow,Aptos Narrow_MSFontService,sans-serif" font-weight="400" font-stretch="semi-condensed" font-size="41" transform="matrix(1 0 0 1 2573.11 3060)">ArrayFire OpenCL</text></g><g><rect x="2916" y="3037" width="23" height="23" fill="#00B0F0"/></g><g><text fill="#595959" font-family="Aptos Narrow,Aptos Narrow_MSFontService,sans-serif" font-weight="400" font-stretch="semi-condensed" font-size="41" transform="matrix(1 0 0 1 2948.16 3060)">oneDNN</text></g><rect x="1246.5" y="1157.5" width="2783" height="1957" stroke="#D9D9D9" stroke-width="3.4375" stroke-linejoin="round" stroke-miterlimit="10" fill="none"/></g></svg>